<svg xmlns="http://www.w3.org/2000/svg" viewBox="0 0 1534.03 272.51"><defs><style>.cls-1{fill:#dadada;}.cls-1,.cls-2{fill-rule:evenodd;}.cls-2,.cls-3{fill:#fff;}</style></defs><g id="Layer_2" data-name="Layer 2"><g id="Layer_1-2" data-name="Layer 1"><path class="cls-1" d="M49.17,112.05c-9.45-6.68-31.47-20.38-39.5-28.46C-2.67,71.3,1.34,31.86,1.36,31.17,1.76,17.9,8.9,14.63,16,12.9c74.67-18.39,135.34-15.35,200.83-2,19.13,3.91,25.94,7.34,26.93,29.89.81,18.49.82,50.37-.83,65.77-.47,4.34-2.08,24.19-20.26,10.38-4.4-3.35-11.25-6.17-10.24-15.58.89-8.25,1.08-26.56,1.22-38a23.49,23.49,0,0,0-7-17h0c-4.38-4.3-10.47-5.15-16.4-6.75-37-9.95-104.59-11.38-143.77,1-3.69,1.17-19.11,3.9-15.61,36.07,1.32,12.12,5.41,22.73,13.89,31.49A33.47,33.47,0,0,0,49.17,112.05Z"></path><path class="cls-1" d="M199.66,213.55c7.06-16.33.11-30.11-12.52-38.21-7.12-5-15.76-10.43-22.87-15.41,0,0,27.3,16.3,9.71,38.19-8.55,10.64-42.64,40.14-55.46,38.93-25.08-2.36-80.16-48.22-95.58-59.48-3.16-2.31-7.34,1.12-5.54,4.54,19.16,36.31,48,65.8,89.64,87.6,12.45,6.52,22.24.1,27.9-3.54C152.47,254.88,185.25,231.14,199.66,213.55Z"></path><path class="cls-2" d="M105.74,97.71h0a16,16,0,0,0,3.1,23.83c21.1,14.6,59.26,41,78,54.08,12.63,8.1,19.27,22.26,12.81,37.93,4.5-5.51,12.19-14.41,19.66-26.65,8.28-13.58,4.6-26.27-14.67-38.83L128.41,95A17.18,17.18,0,0,0,105.74,97.71Z"></path><path class="cls-2" d="M106.92,172.94h0a15.64,15.64,0,0,0-3.54-21.86c-18.77-13.51-53.56-38.54-71.24-51.23C10.85,84.37,3.54,58.94,1.38,30.8c-1.63,19.64-2,50.13-.2,69.93,1.63,18.52,14.31,28.05,29.39,38.85l53.09,38.3C90.67,182.93,101.86,180,106.92,172.94Z"></path><path class="cls-3" d="M1056,218.85a9,9,0,0,1,9.22,9.22,9.1,9.1,0,0,1-9.22,9.22,9.44,9.44,0,0,1-9.44-9.22A9.29,9.29,0,0,1,1056,218.85Z"></path><path class="cls-3" d="M1143.26,109.54c23.73,0,39.54,12.17,45,19.16a3.64,3.64,0,0,1-.61,5.48l-3,3c-2.13,2.13-4.56,1.22-6.39-.61-3-3.34-15.81-14-35-14-27.67,0-50.18,21.6-50.18,50.49,0,29.5,22.81,51.4,49.88,51.4,22.81,0,34.67-14.29,38-17.94,2.13-2.44,4-2.44,5.78-.61l3.34,3c1.52,1.52,2.13,3,.92,4.87-4.57,7.3-22.51,23.42-47.76,23.42-34.37,0-63.87-27.07-63.87-63.88A63.67,63.67,0,0,1,1143.26,109.54Z"></path><path class="cls-3" d="M1266.13,109.54c34.06,0,61.13,28.9,61.13,63.57,0,35.59-27.07,64.18-61.13,64.18-34.37,0-61.14-28.59-61.14-64.18C1205,138.44,1231.76,109.54,1266.13,109.54Zm0,115.28c26.76,0,47.75-22.82,47.75-51.71,0-28-21-50.79-47.75-50.79-27.07,0-48.06,22.81-48.06,50.79C1218.07,202,1239.06,224.82,1266.13,224.82Z"></path><path class="cls-3" d="M1346.67,119.58a4,4,0,0,1,4-4h3.65a3.31,3.31,0,0,1,3.34,3l1.52,13.07c3.35-4.56,17.34-19.16,42-19.16,18.55,0,32.24,7.91,39.84,22.21,3.65-4.87,13.93-22.21,45.62-22.21,33.16,0,47.45,21.6,47.45,55.66v65.09a4,4,0,0,1-4,4H1524c-1.83,0-3.35-1.52-3.35-4V168.24c0-28-12.17-42.58-35-42.58s-37.41,13.76-37.41,42.58v65.09a4,4,0,0,1-4,4h-5.78c-2.13,0-3.65-1.52-3.65-4V168.24c0-28-12.47-42.58-35.28-42.58-24.64,0-38,18.56-39.54,21v86.68c0,2.44-1.22,4-4,4H1350c-2.13,0-3.35-1.83-3.35-4Z"></path><path class="cls-3" d="M356.71,201.58a5.92,5.92,0,0,1,8.2-1.59,54.69,54.69,0,0,0,29.68,8.88c9,0,16-4.33,16.05-10.53.07-18.85-60.65-12.36-60.5-52.65.08-24,23.39-38.92,48.18-38.83a83.42,83.42,0,0,1,36.9,9.31,6,6,0,0,1,2.15,8.49L428,139a5.91,5.91,0,0,1-7.86,1.94,39.8,39.8,0,0,0-19.36-5.62c-9.3,0-17.06,3.55-17.08,10-.06,16.27,60.66,10,60.5,53.43-.09,24-23.64,38.66-50,38.57a86.6,86.6,0,0,1-45.31-13.54,5.93,5.93,0,0,1-1.66-8.33Z"></path><path class="cls-3" d="M939.26,201.55a5.88,5.88,0,0,1,8.15-1.58,54.7,54.7,0,0,0,29.71,8.9c9,0,16-4.33,16.06-10.53.06-18.85-60.66-12.36-60.51-52.65.09-24,23.39-38.92,48.18-38.83a83.35,83.35,0,0,1,36.93,9.33,5.92,5.92,0,0,1,2.15,8.44l-9.4,14.36a5.87,5.87,0,0,1-7.81,1.92,39.86,39.86,0,0,0-19.39-5.63c-9.3,0-17.06,3.55-17.08,10-.06,16.27,60.66,10,60.5,53.43-.08,24-23.64,38.66-50,38.57a86.61,86.61,0,0,1-45.34-13.56,5.9,5.9,0,0,1-1.65-8.28Z"></path><path class="cls-3" d="M521.53,106.85c38,.13,66.53,29.43,66.4,65.59s-28.91,65-66.88,64.85-66.53-29.18-66.4-65.34S483.56,106.71,521.53,106.85Zm-.37,99.44c19.63.07,33.12-15.12,33.19-34s-13.3-34.41-32.94-34.48-33.11,15.38-33.18,34.23S501.53,206.22,521.16,206.29Z"></path><path class="cls-3" d="M717.06,205.53a6.07,6.07,0,0,1,1,8.83c-14.1,16-31.45,23-52.84,22.93-38.75-.15-67-29.18-66.92-65.34.13-36.42,29.43-65.24,67.65-65.1a67.46,67.46,0,0,1,48.42,20.37,6.13,6.13,0,0,1-.36,8.85L699.23,149a6,6,0,0,1-8.25-.27,35.4,35.4,0,0,0-25.18-10.84c-19.37-.07-33.89,15.12-34,34.23-.07,19.63,14.08,34.15,34.49,34.22,11.2,0,20.52-5.46,26.52-12a6.16,6.16,0,0,1,8.27-.83Z"></path><rect class="cls-3" x="689.18" y="155.11" width="130.69" height="33.58" rx="6.77" transform="translate(579.87 925.8) rotate(-89.79)"></rect><path class="cls-3" d="M856.28,106.85c38,.13,66.53,29.43,66.4,65.59s-28.91,65-66.88,64.85S789.26,208.11,789.4,172,818.31,106.71,856.28,106.85Zm-.37,99.44c19.63.07,33.12-15.12,33.19-34s-13.31-34.41-32.94-34.48S823,153.22,823,172.07,836.28,206.22,855.91,206.29Z"></path></g></g></svg>